0
SECTION
2
HEADER
9
$ACADVER
1
AC1021
9
$LASTSAVEDBY
1
@tarikjabiri/dxf
9
$HANDSEED
5
76
9
$INSUNITS
70
0
9
$CLAYER
8
0
9
$VIEWCTR
10
130
20
570
0
ENDSEC
0
SECTION
2
CLASSES
0
ENDSEC
0
SECTION
2
TABLES
0
TABLE
2
VPORT
5
1
330
0
100
AcDbSymbolTable
70
1
0
VPORT
5
19
330
1
100
AcDbSymbolTableRecord
100
AcDbViewportTableRecord
2
*Active
70
0
10
0
20
0
11
1
21
1
12
130
22
570
13
0
23
0
14
10
24
10
15
10
25
10
16
0
26
0
36
1
17
0
27
0
37
0
40
1320
41
2
42
50
43
0
44
0
50
0
51
0
71
0
72
100
73
1
74
3
75
0
76
1
77
0
78
0
281
0
65
1
110
0
120
0
130
0
111
1
121
0
131
0
112
0
122
1
132
0
79
0
146
0
348
10020
60
7
61
5
292
1
282
1
141
0
142
0
63
250
421
3358443
0
ENDTAB
0
TABLE
2
LTYPE
5
2
330
0
100
AcDbSymbolTable
70
3
0
LTYPE
5
12
330
2
100
AcDbSymbolTableRecord
100
AcDbLinetypeTableRecord
2
ByBlock
70
0
3

72
65
73
0
40
0
0
LTYPE
5
13
330
2
100
AcDbSymbolTableRecord
100
AcDbLinetypeTableRecord
2
ByLayer
70
0
3

72
65
73
0
40
0
0
LTYPE
5
14
330
2
100
AcDbSymbolTableRecord
100
AcDbLinetypeTableRecord
2
Continuous
70
0
3
Solid line
72
65
73
0
40
0
0
ENDTAB
0
TABLE
2
LAYER
5
3
330
0
100
AcDbSymbolTable
70
1
0
LAYER
5
15
330
3
100
AcDbSymbolTableRecord
100
AcDbLayerTableRecord
2
0
70
0
62
7
6
Continuous
370
0
390
0
0
ENDTAB
0
TABLE
2
STYLE
5
4
330
0
100
AcDbSymbolTable
70
1
0
STYLE
5
16
330
4
100
AcDbSymbolTableRecord
100
AcDbTextStyleTableRecord
2
Standard
70
0
40
0
41
1
50
0
71
0
42
1
3
txt
4

0
ENDTAB
0
TABLE
2
VIEW
5
5
330
0
100
AcDbSymbolTable
70
0
0
ENDTAB
0
TABLE
2
UCS
5
6
330
0
100
AcDbSymbolTable
70
0
0
ENDTAB
0
TABLE
2
APPID
5
7
330
0
100
AcDbSymbolTable
70
1
0
APPID
5
17
330
7
100
AcDbSymbolTableRecord
100
AcDbRegAppTableRecord
2
ACAD
70
0
0
ENDTAB
0
TABLE
2
DIMSTYLE
5
8
330
0
100
AcDbSymbolTable
70
1
100
AcDbDimStyleTable
0
DIMSTYLE
105
18
330
8
100
AcDbSymbolTableRecord
100
AcDbDimStyleTableRecord
2
Standard
70
0
340
16
0
ENDTAB
0
TABLE
2
BLOCK_RECORD
5
9
330
0
100
AcDbSymbolTable
70
3
0
BLOCK_RECORD
5
C
330
9
100
AcDbSymbolTableRecord
100
AcDbBlockTableRecord
2
*Model_Space
70
0
280
1
281
0
0
BLOCK_RECORD
5
F
330
9
100
AcDbSymbolTableRecord
100
AcDbBlockTableRecord
2
*Paper_Space
70
0
280
1
281
0
0
BLOCK_RECORD
5
1A
330
9
100
AcDbSymbolTableRecord
100
AcDbBlockTableRecord
2
face
70
0
280
1
281
0
0
ENDTAB
0
ENDSEC
0
SECTION
2
BLOCKS
0
BLOCK
5
D
330
C
100
AcDbEntity
8
0
100
AcDbBlockBegin
2
*Model_Space
70
0
10
0
20
0
30
0
3
*Model_Space
1

0
ENDBLK
5
E
100
AcDbEntity
8
0
100
AcDbBlockEnd
0
BLOCK
5
10
330
F
100
AcDbEntity
8
0
100
AcDbBlockBegin
2
*Paper_Space
70
0
10
0
20
0
30
0
3
*Paper_Space
1

0
ENDBLK
5
11
100
AcDbEntity
8
0
100
AcDbBlockEnd
0
BLOCK
5
1B
330
1A
100
AcDbEntity
8
0
100
AcDbBlockBegin
2
face
70
0
10
0
20
0
30
0
3
face
1

0
LINE
5
1D
330
1A
100
AcDbEntity
8
0
100
AcDbLine
10
10
20
10
30
0
11
10
21
2.25195
31
0
0
LINE
5
1E
330
1A
100
AcDbEntity
8
0
100
AcDbLine
10
10
20
0
30
0
11
20.255000000000003
21
0
31
0
0
LINE
5
1F
330
1A
100
AcDbEntity
8
0
100
AcDbLine
10
20.255000000000003
20
0
30
0
11
20.255000000000003
21
7.74805
31
0
0
LINE
5
20
330
1A
100
AcDbEntity
8
0
100
AcDbLine
10
20.255000000000003
20
7.74805
30
0
11
30.51
21
7.74805
31
0
0
LINE
5
21
330
1A
100
AcDbEntity
8
0
100
AcDbLine
10
30.51
20
7.74805
30
0
11
30.51
21
0
31
0
0
LINE
5
22
330
1A
100
AcDbEntity
8
0
100
AcDbLine
10
30.51
20
0
30
0
11
40.765
21
0
31
0
0
LINE
5
23
330
1A
100
AcDbEntity
8
0
100
AcDbLine
10
40.765
20
0
30
0
11
40.765
21
7.74805
31
0
0
LINE
5
24
330
1A
100
AcDbEntity
8
0
100
AcDbLine
10
40.765
20
7.74805
30
0
11
61.275000000000006
21
7.74805
31
0
0
LINE
5
25
330
1A
100
AcDbEntity
8
0
100
AcDbLine
10
61.275000000000006
20
7.74805
30
0
11
61.275000000000006
21
18.00305
31
0
0
LINE
5
26
330
1A
100
AcDbEntity
8
0
100
AcDbLine
10
61.275000000000006
20
18.00305
30
0
11
53.52695000000001
21
18.00305
31
0
0
LINE
5
27
330
1A
100
AcDbEntity
8
0
100
AcDbLine
10
53.52695000000001
20
18.00305
30
0
11
53.52695000000001
21
28.25805
31
0
0
LINE
5
28
330
1A
100
AcDbEntity
8
0
100
AcDbLine
10
53.52695000000001
20
28.25805
30
0
11
61.275000000000006
21
28.25805
31
0
0
LINE
5
29
330
1A
100
AcDbEntity
8
0
100
AcDbLine
10
61.275000000000006
20
28.25805
30
0
11
61.275000000000006
21
38.51305
31
0
0
LINE
5
2A
330
1A
100
AcDbEntity
8
0
100
AcDbLine
10
61.275000000000006
20
38.51305
30
0
11
53.52695000000001
21
38.51305
31
0
0
LINE
5
2B
330
1A
100
AcDbEntity
8
0
100
AcDbLine
10
53.52695000000001
20
38.51305
30
0
11
53.52695000000001
21
59.023050000000005
31
0
0
LINE
5
2C
330
1A
100
AcDbEntity
8
0
100
AcDbLine
10
53.52695000000001
20
59.023050000000005
30
0
11
43.271950000000004
21
59.023050000000005
31
0
0
LINE
5
2D
330
1A
100
AcDbEntity
8
0
100
AcDbLine
10
43.271950000000004
20
59.023050000000005
30
0
11
43.271950000000004
21
51.275000000000006
31
0
0
LINE
5
2E
330
1A
100
AcDbEntity
8
0
100
AcDbLine
10
43.271950000000004
20
51.275000000000006
30
0
11
33.01695
21
51.275000000000006
31
0
0
LINE
5
2F
330
1A
100
AcDbEntity
8
0
100
AcDbLine
10
33.01695
20
51.275000000000006
30
0
11
33.01695
21
59.023050000000005
31
0
0
LINE
5
30
330
1A
100
AcDbEntity
8
0
100
AcDbLine
10
33.01695
20
59.023050000000005
30
0
11
22.761950000000002
21
59.023050000000005
31
0
0
LINE
5
31
330
1A
100
AcDbEntity
8
0
100
AcDbLine
10
22.761950000000002
20
59.023050000000005
30
0
11
22.761950000000002
21
51.275000000000006
31
0
0
LINE
5
32
330
1A
100
AcDbEntity
8
0
100
AcDbLine
10
22.761950000000002
20
51.275000000000006
30
0
11
2.25195
21
51.275000000000006
31
0
0
LINE
5
33
330
1A
100
AcDbEntity
8
0
100
AcDbLine
10
2.25195
20
51.275000000000006
30
0
11
2.25195
21
41.02
31
0
0
LINE
5
34
330
1A
100
AcDbEntity
8
0
100
AcDbLine
10
2.25195
20
41.02
30
0
11
10
21
41.02
31
0
0
LINE
5
35
330
1A
100
AcDbEntity
8
0
100
AcDbLine
10
10
20
41.02
30
0
11
10
21
30.765
31
0
0
LINE
5
36
330
1A
100
AcDbEntity
8
0
100
AcDbLine
10
10
20
30.765
30
0
11
2.25195
21
30.765
31
0
0
LINE
5
37
330
1A
100
AcDbEntity
8
0
100
AcDbLine
10
2.25195
20
30.765
30
0
11
2.25195
21
20.51
31
0
0
LINE
5
38
330
1A
100
AcDbEntity
8
0
100
AcDbLine
10
2.25195
20
20.51
30
0
11
10
21
20.51
31
0
0
LINE
5
39
330
1A
100
AcDbEntity
8
0
100
AcDbLine
10
10
20
20.51
30
0
11
10
21
0
31
0
0
ENDBLK
5
1C
100
AcDbEntity
8
0
100
AcDbBlockEnd
0
ENDSEC
0
SECTION
2
ENTITIES
0
INSERT
5
3A
330
C
100
AcDbEntity
8
0
100
AcDbBlockReference
2
face
10
10
20
10
30
0
41
1
42
1
43
1
50
0
66
0
70
1
71
1
44
0
45
0
0
INSERT
5
3B
330
C
100
AcDbEntity
8
0
100
AcDbBlockReference
2
face
10
90
20
10
30
0
41
1
42
1
43
1
50
0
66
0
70
1
71
1
44
0
45
0
0
INSERT
5
3C
330
C
100
AcDbEntity
8
0
100
AcDbBlockReference
2
face
10
170
20
10
30
0
41
1
42
1
43
1
50
0
66
0
70
1
71
1
44
0
45
0
0
INSERT
5
3D
330
C
100
AcDbEntity
8
0
100
AcDbBlockReference
2
face
10
250
20
10
30
0
41
1
42
1
43
1
50
0
66
0
70
1
71
1
44
0
45
0
0
INSERT
5
3E
330
C
100
AcDbEntity
8
0
100
AcDbBlockReference
2
face
10
10
20
90
30
0
41
1
42
1
43
1
50
0
66
0
70
1
71
1
44
0
45
0
0
INSERT
5
3F
330
C
100
AcDbEntity
8
0
100
AcDbBlockReference
2
face
10
90
20
90
30
0
41
1
42
1
43
1
50
0
66
0
70
1
71
1
44
0
45
0
0
INSERT
5
40
330
C
100
AcDbEntity
8
0
100
AcDbBlockReference
2
face
10
170
20
90
30
0
41
1
42
1
43
1
50
0
66
0
70
1
71
1
44
0
45
0
0
INSERT
5
41
330
C
100
AcDbEntity
8
0
100
AcDbBlockReference
2
face
10
250
20
90
30
0
41
1
42
1
43
1
50
0
66
0
70
1
71
1
44
0
45
0
0
INSERT
5
42
330
C
100
AcDbEntity
8
0
100
AcDbBlockReference
2
face
10
10
20
170
30
0
41
1
42
1
43
1
50
0
66
0
70
1
71
1
44
0
45
0
0
INSERT
5
43
330
C
100
AcDbEntity
8
0
100
AcDbBlockReference
2
face
10
90
20
170
30
0
41
1
42
1
43
1
50
0
66
0
70
1
71
1
44
0
45
0
0
INSERT
5
44
330
C
100
AcDbEntity
8
0
100
AcDbBlockReference
2
face
10
170
20
170
30
0
41
1
42
1
43
1
50
0
66
0
70
1
71
1
44
0
45
0
0
INSERT
5
45
330
C
100
AcDbEntity
8
0
100
AcDbBlockReference
2
face
10
250
20
170
30
0
41
1
42
1
43
1
50
0
66
0
70
1
71
1
44
0
45
0
0
INSERT
5
46
330
C
100
AcDbEntity
8
0
100
AcDbBlockReference
2
face
10
10
20
250
30
0
41
1
42
1
43
1
50
0
66
0
70
1
71
1
44
0
45
0
0
INSERT
5
47
330
C
100
AcDbEntity
8
0
100
AcDbBlockReference
2
face
10
90
20
250
30
0
41
1
42
1
43
1
50
0
66
0
70
1
71
1
44
0
45
0
0
INSERT
5
48
330
C
100
AcDbEntity
8
0
100
AcDbBlockReference
2
face
10
170
20
250
30
0
41
1
42
1
43
1
50
0
66
0
70
1
71
1
44
0
45
0
0
INSERT
5
49
330
C
100
AcDbEntity
8
0
100
AcDbBlockReference
2
face
10
250
20
250
30
0
41
1
42
1
43
1
50
0
66
0
70
1
71
1
44
0
45
0
0
INSERT
5
4A
330
C
100
AcDbEntity
8
0
100
AcDbBlockReference
2
face
10
10
20
330
30
0
41
1
42
1
43
1
50
0
66
0
70
1
71
1
44
0
45
0
0
INSERT
5
4B
330
C
100
AcDbEntity
8
0
100
AcDbBlockReference
2
face
10
90
20
330
30
0
41
1
42
1
43
1
50
0
66
0
70
1
71
1
44
0
45
0
0
INSERT
5
4C
330
C
100
AcDbEntity
8
0
100
AcDbBlockReference
2
face
10
170
20
330
30
0
41
1
42
1
43
1
50
0
66
0
70
1
71
1
44
0
45
0
0
INSERT
5
4D
330
C
100
AcDbEntity
8
0
100
AcDbBlockReference
2
face
10
250
20
330
30
0
41
1
42
1
43
1
50
0
66
0
70
1
71
1
44
0
45
0
0
INSERT
5
4E
330
C
100
AcDbEntity
8
0
100
AcDbBlockReference
2
face
10
10
20
410
30
0
41
1
42
1
43
1
50
0
66
0
70
1
71
1
44
0
45
0
0
INSERT
5
4F
330
C
100
AcDbEntity
8
0
100
AcDbBlockReference
2
face
10
90
20
410
30
0
41
1
42
1
43
1
50
0
66
0
70
1
71
1
44
0
45
0
0
INSERT
5
50
330
C
100
AcDbEntity
8
0
100
AcDbBlockReference
2
face
10
170
20
410
30
0
41
1
42
1
43
1
50
0
66
0
70
1
71
1
44
0
45
0
0
INSERT
5
51
330
C
100
AcDbEntity
8
0
100
AcDbBlockReference
2
face
10
250
20
410
30
0
41
1
42
1
43
1
50
0
66
0
70
1
71
1
44
0
45
0
0
INSERT
5
52
330
C
100
AcDbEntity
8
0
100
AcDbBlockReference
2
face
10
10
20
490
30
0
41
1
42
1
43
1
50
0
66
0
70
1
71
1
44
0
45
0
0
INSERT
5
53
330
C
100
AcDbEntity
8
0
100
AcDbBlockReference
2
face
10
90
20
490
30
0
41
1
42
1
43
1
50
0
66
0
70
1
71
1
44
0
45
0
0
INSERT
5
54
330
C
100
AcDbEntity
8
0
100
AcDbBlockReference
2
face
10
170
20
490
30
0
41
1
42
1
43
1
50
0
66
0
70
1
71
1
44
0
45
0
0
INSERT
5
55
330
C
100
AcDbEntity
8
0
100
AcDbBlockReference
2
face
10
250
20
490
30
0
41
1
42
1
43
1
50
0
66
0
70
1
71
1
44
0
45
0
0
INSERT
5
56
330
C
100
AcDbEntity
8
0
100
AcDbBlockReference
2
face
10
10
20
570
30
0
41
1
42
1
43
1
50
0
66
0
70
1
71
1
44
0
45
0
0
INSERT
5
57
330
C
100
AcDbEntity
8
0
100
AcDbBlockReference
2
face
10
90
20
570
30
0
41
1
42
1
43
1
50
0
66
0
70
1
71
1
44
0
45
0
0
INSERT
5
58
330
C
100
AcDbEntity
8
0
100
AcDbBlockReference
2
face
10
170
20
570
30
0
41
1
42
1
43
1
50
0
66
0
70
1
71
1
44
0
45
0
0
INSERT
5
59
330
C
100
AcDbEntity
8
0
100
AcDbBlockReference
2
face
10
250
20
570
30
0
41
1
42
1
43
1
50
0
66
0
70
1
71
1
44
0
45
0
0
INSERT
5
5A
330
C
100
AcDbEntity
8
0
100
AcDbBlockReference
2
face
10
10
20
650
30
0
41
1
42
1
43
1
50
0
66
0
70
1
71
1
44
0
45
0
0
INSERT
5
5B
330
C
100
AcDbEntity
8
0
100
AcDbBlockReference
2
face
10
90
20
650
30
0
41
1
42
1
43
1
50
0
66
0
70
1
71
1
44
0
45
0
0
INSERT
5
5C
330
C
100
AcDbEntity
8
0
100
AcDbBlockReference
2
face
10
170
20
650
30
0
41
1
42
1
43
1
50
0
66
0
70
1
71
1
44
0
45
0
0
INSERT
5
5D
330
C
100
AcDbEntity
8
0
100
AcDbBlockReference
2
face
10
250
20
650
30
0
41
1
42
1
43
1
50
0
66
0
70
1
71
1
44
0
45
0
0
INSERT
5
5E
330
C
100
AcDbEntity
8
0
100
AcDbBlockReference
2
face
10
10
20
730
30
0
41
1
42
1
43
1
50
0
66
0
70
1
71
1
44
0
45
0
0
INSERT
5
5F
330
C
100
AcDbEntity
8
0
100
AcDbBlockReference
2
face
10
90
20
730
30
0
41
1
42
1
43
1
50
0
66
0
70
1
71
1
44
0
45
0
0
INSERT
5
60
330
C
100
AcDbEntity
8
0
100
AcDbBlockReference
2
face
10
170
20
730
30
0
41
1
42
1
43
1
50
0
66
0
70
1
71
1
44
0
45
0
0
INSERT
5
61
330
C
100
AcDbEntity
8
0
100
AcDbBlockReference
2
face
10
250
20
730
30
0
41
1
42
1
43
1
50
0
66
0
70
1
71
1
44
0
45
0
0
INSERT
5
62
330
C
100
AcDbEntity
8
0
100
AcDbBlockReference
2
face
10
10
20
810
30
0
41
1
42
1
43
1
50
0
66
0
70
1
71
1
44
0
45
0
0
INSERT
5
63
330
C
100
AcDbEntity
8
0
100
AcDbBlockReference
2
face
10
90
20
810
30
0
41
1
42
1
43
1
50
0
66
0
70
1
71
1
44
0
45
0
0
INSERT
5
64
330
C
100
AcDbEntity
8
0
100
AcDbBlockReference
2
face
10
170
20
810
30
0
41
1
42
1
43
1
50
0
66
0
70
1
71
1
44
0
45
0
0
INSERT
5
65
330
C
100
AcDbEntity
8
0
100
AcDbBlockReference
2
face
10
250
20
810
30
0
41
1
42
1
43
1
50
0
66
0
70
1
71
1
44
0
45
0
0
INSERT
5
66
330
C
100
AcDbEntity
8
0
100
AcDbBlockReference
2
face
10
10
20
890
30
0
41
1
42
1
43
1
50
0
66
0
70
1
71
1
44
0
45
0
0
INSERT
5
67
330
C
100
AcDbEntity
8
0
100
AcDbBlockReference
2
face
10
90
20
890
30
0
41
1
42
1
43
1
50
0
66
0
70
1
71
1
44
0
45
0
0
INSERT
5
68
330
C
100
AcDbEntity
8
0
100
AcDbBlockReference
2
face
10
170
20
890
30
0
41
1
42
1
43
1
50
0
66
0
70
1
71
1
44
0
45
0
0
INSERT
5
69
330
C
100
AcDbEntity
8
0
100
AcDbBlockReference
2
face
10
250
20
890
30
0
41
1
42
1
43
1
50
0
66
0
70
1
71
1
44
0
45
0
0
INSERT
5
6A
330
C
100
AcDbEntity
8
0
100
AcDbBlockReference
2
face
10
10
20
970
30
0
41
1
42
1
43
1
50
0
66
0
70
1
71
1
44
0
45
0
0
INSERT
5
6B
330
C
100
AcDbEntity
8
0
100
AcDbBlockReference
2
face
10
90
20
970
30
0
41
1
42
1
43
1
50
0
66
0
70
1
71
1
44
0
45
0
0
INSERT
5
6C
330
C
100
AcDbEntity
8
0
100
AcDbBlockReference
2
face
10
170
20
970
30
0
41
1
42
1
43
1
50
0
66
0
70
1
71
1
44
0
45
0
0
INSERT
5
6D
330
C
100
AcDbEntity
8
0
100
AcDbBlockReference
2
face
10
250
20
970
30
0
41
1
42
1
43
1
50
0
66
0
70
1
71
1
44
0
45
0
0
INSERT
5
6E
330
C
100
AcDbEntity
8
0
100
AcDbBlockReference
2
face
10
10
20
1050
30
0
41
1
42
1
43
1
50
0
66
0
70
1
71
1
44
0
45
0
0
INSERT
5
6F
330
C
100
AcDbEntity
8
0
100
AcDbBlockReference
2
face
10
90
20
1050
30
0
41
1
42
1
43
1
50
0
66
0
70
1
71
1
44
0
45
0
0
INSERT
5
70
330
C
100
AcDbEntity
8
0
100
AcDbBlockReference
2
face
10
170
20
1050
30
0
41
1
42
1
43
1
50
0
66
0
70
1
71
1
44
0
45
0
0
INSERT
5
71
330
C
100
AcDbEntity
8
0
100
AcDbBlockReference
2
face
10
250
20
1050
30
0
41
1
42
1
43
1
50
0
66
0
70
1
71
1
44
0
45
0
0
INSERT
5
72
330
C
100
AcDbEntity
8
0
100
AcDbBlockReference
2
face
10
10
20
1130
30
0
41
1
42
1
43
1
50
0
66
0
70
1
71
1
44
0
45
0
0
INSERT
5
73
330
C
100
AcDbEntity
8
0
100
AcDbBlockReference
2
face
10
90
20
1130
30
0
41
1
42
1
43
1
50
0
66
0
70
1
71
1
44
0
45
0
0
INSERT
5
74
330
C
100
AcDbEntity
8
0
100
AcDbBlockReference
2
face
10
170
20
1130
30
0
41
1
42
1
43
1
50
0
66
0
70
1
71
1
44
0
45
0
0
INSERT
5
75
330
C
100
AcDbEntity
8
0
100
AcDbBlockReference
2
face
10
250
20
1130
30
0
41
1
42
1
43
1
50
0
66
0
70
1
71
1
44
0
45
0
0
ENDSEC
0
SECTION
2
OBJECTS
0
DICTIONARY
5
A
330
0
100
AcDbDictionary
281
1
3
ACAD_GROUP
350
B
0
DICTIONARY
5
B
330
A
100
AcDbDictionary
281
0
0
ENDSEC
0
EOF